HIERARCHY
ROOT Reference
{
  OFFSET 0 0 0
  CHANNELS 6 Xposition Yposition Zposition Zrotation Xrotation Yrotation
  JOINT Hips
  {
    OFFSET 251.394 724.17 483.536
    CHANNELS 3 Zrotation Xrotation Yrotation
    JOINT RightUpLeg
    {
      OFFSET -0.450515 -23.4426 -1.37224
      CHANNELS 3 Zrotation Xrotation Yrotation
      JOINT RightLeg
      {
        OFFSET 112.821 0.0872427 -0.321027
        CHANNELS 3 Zrotation Xrotation Yrotation
        JOINT RightFoot
        {
          OFFSET 105.718 0.000193788 0.0213165
          CHANNELS 3 Zrotation Xrotation Yrotation
          JOINT RightToeBase
          {
            OFFSET 37.638 -0.000116272 0.00224792
            CHANNELS 3 Zrotation Xrotation Yrotation
            JOINT RightToeEnd
            {
              OFFSET 21.2112 0.114605 -0.000138184
              CHANNELS 3 Zrotation Xrotation Yrotation
              End Site
              {
                OFFSET 0 0 0
              }
            }
          }
        }
      }
    }
    JOINT LeftUpLeg
    {
      OFFSET -0.449508 23.4315 -1.37054
      CHANNELS 3 Zrotation Xrotation Yrotation
      JOINT LeftLeg
      {
        OFFSET 112.821 -0.0485242 -0.372458
        CHANNELS 3 Zrotation Xrotation Yrotation
        JOINT LeftFoot
        {
          OFFSET 105.716 0.00496094 -0.0229443
          CHANNELS 3 Zrotation Xrotation Yrotation
          JOINT LeftToeBase
          {
            OFFSET 37.639 0 0.00158905
            CHANNELS 3 Zrotation Xrotation Yrotation
            JOINT LeftToeEnd
            {
              OFFSET 21.2113 -0.125031 -0.00017438
              CHANNELS 3 Zrotation Xrotation Yrotation
              End Site
              {
                OFFSET 0 0 0
              }
            }
          }
        }
      }
    }
    JOINT Spine
    {
      OFFSET -5.01225 0.000463591 -9.60395
      CHANNELS 3 Zrotation Xrotation Yrotation
      JOINT Spine1
      {
        OFFSET 26.0222 -0.000271301 -0.000155029
        CHANNELS 3 Zrotation Xrotation Yrotation
        JOINT Spine2
        {
          OFFSET 27.173 -0.000155029 -0.000310058
          CHANNELS 3 Zrotation Xrotation Yrotation
          JOINT Spine3
          {
            OFFSET 36.3953 -0.000232544 7.75146e-005
            CHANNELS 3 Zrotation Xrotation Yrotation
            JOINT Neck
            {
              OFFSET 36.4331 0 -3.00261
              CHANNELS 3 Zrotation Xrotation Yrotation
              JOINT Head
              {
                OFFSET 23.0407 -0.000232544 -0.000310058
                CHANNELS 3 Zrotation Xrotation Yrotation
                End Site
                {
                  OFFSET 0 0 0
                }
              }
            }
            JOINT LeftShoulder
            {
              OFFSET 20.1317 6.74168 -12.6061
              CHANNELS 3 Zrotation Xrotation Yrotation
              JOINT LeftArm
              {
                OFFSET 34.2172 -5.81359e-005 7.75146e-005
                CHANNELS 3 Zrotation Xrotation Yrotation
                JOINT LeftForeArm
                {
                  OFFSET 65.4129 -0.0821605 0.0585235
                  CHANNELS 3 Zrotation Xrotation Yrotation
                  JOINT LeftHand
                  {
                    OFFSET 67.3883 0.0359667 0.0112396
                    CHANNELS 3 Zrotation Xrotation Yrotation
                    JOINT LeftHandThumb1
                    {
                      OFFSET 8.78386 2.85353 -6.05362
                      CHANNELS 3 Zrotation Xrotation Yrotation
                      JOINT LeftHandThumb2
                      {
                        OFFSET 8.25498 -0.000116272 -0.000174407
                        CHANNELS 3 Zrotation Xrotation Yrotation
                        JOINT LeftHandThumb3
                        {
                          OFFSET 7.24822 0.000310058 5.81358e-005
                          CHANNELS 3 Zrotation Xrotation Yrotation
                          JOINT LeftHandThumb4
                          {
                            OFFSET 7.0004 -3.87568e-005 -0.000310057
                            CHANNELS 3 Zrotation Xrotation Yrotation
                            End Site
                            {
                              OFFSET 0 0 0
                            }
                          }
                        }
                      }
                    }
                    JOINT LeftHandIndex1
                    {
                      OFFSET 24.0991 -1.01537 -5.40558
                      CHANNELS 3 Zrotation Xrotation Yrotation
                      JOINT LeftHandIndex2
                      {
                        OFFSET 7.26759 -0.000290679 -0.000465086
                        CHANNELS 3 Zrotation Xrotation Yrotation
                        JOINT LeftHandIndex3
                        {
                          OFFSET 7.13628 -1.93787e-005 0.000232543
                          CHANNELS 3 Zrotation Xrotation Yrotation
                          JOINT LeftHandIndex4
                          {
                            OFFSET 5.46699 9.68932e-005 -0.000387571
                            CHANNELS 3 Zrotation Xrotation Yrotation
                            End Site
                            {
                              OFFSET 0 0 0
                            }
                          }
                        }
                      }
                    }
                    JOINT LeftHandMiddle1
                    {
                      OFFSET 24.4604 -2.52837 0.918567
                      CHANNELS 3 Zrotation Xrotation Yrotation
                      JOINT LeftHandMiddle2
                      {
                        OFFSET 7.41627 -5.81359e-005 0.000116271
                        CHANNELS 3 Zrotation Xrotation Yrotation
                        JOINT LeftHandMiddle3
                        {
                          OFFSET 8.76829 3.87573e-005 -7.75142e-005
                          CHANNELS 3 Zrotation Xrotation Yrotation
                          JOINT LeftHandMiddle4
                          {
                            OFFSET 6.07588 -0.00013565 -5.81356e-005
                            CHANNELS 3 Zrotation Xrotation Yrotation
                            End Site
                            {
                              OFFSET 0 0 0
                            }
                          }
                        }
                      }
                    }
                    JOINT LeftHandRing1
                    {
                      OFFSET 22.465 -1.97467 6.3466
                      CHANNELS 3 Zrotation Xrotation Yrotation
                      JOINT LeftHandRing2
                      {
                        OFFSET 7.36666 -0.000232544 0.000387571
                        CHANNELS 3 Zrotation Xrotation Yrotation
                        JOINT LeftHandRing3
                        {
                          OFFSET 8.07624 -0.000465087 -0.000203475
                          CHANNELS 3 Zrotation Xrotation Yrotation
                          JOINT LeftHandRing4
                          {
                            OFFSET 6.04433 0.00013565 3.87571e-005
                            CHANNELS 3 Zrotation Xrotation Yrotation
                            End Site
                            {
                              OFFSET 0 0 0
                            }
                          }
                        }
                      }
                    }
                    JOINT LeftHandPinky1
                    {
                      OFFSET 19.5278 0.352933 10.4295
                      CHANNELS 3 Zrotation Xrotation Yrotation
                      JOINT LeftHandPinky2
                      {
                        OFFSET 6.16525 5.8136e-005 -0.000251921
                        CHANNELS 3 Zrotation Xrotation Yrotation
                        JOINT LeftHandPinky3
                        {
                          OFFSET 6.14448 -0.000329434 -0.00510625
                          CHANNELS 3 Zrotation Xrotation Yrotation
                          JOINT LeftHandPinky4
                          {
                            OFFSET 4.98555 0.000116272 0.000116271
                            CHANNELS 3 Zrotation Xrotation Yrotation
                            End Site
                            {
                              OFFSET 0 0 0
                            }
                          }
                        }
                      }
                    }
                  }
                }
              }
            }
            JOINT RightShoulder
            {
              OFFSET 20.1309 -6.74152 -12.6063
              CHANNELS 3 Zrotation Xrotation Yrotation
              JOINT RightArm
              {
                OFFSET 34.2171 7.75146e-005 7.75146e-005
                CHANNELS 3 Zrotation Xrotation Yrotation
                JOINT RightForeArm
                {
                  OFFSET 65.4492 0.242543 -0.176501
                  CHANNELS 3 Zrotation Xrotation Yrotation
                  JOINT RightHand
                  {
                    OFFSET 67.3888 -0.0867388 0.0597442
                    CHANNELS 3 Zrotation Xrotation Yrotation
                    JOINT RightHandThumb1
                    {
                      OFFSET 8.78307 -2.85357 -6.05302
                      CHANNELS 3 Zrotation Xrotation Yrotation
                      JOINT RightHandThumb2
                      {
                        OFFSET 8.25493 -7.75145e-005 0
                        CHANNELS 3 Zrotation Xrotation Yrotation
                        JOINT RightHandThumb3
                        {
                          OFFSET 7.24797 -0.000174408 0.000155029
                          CHANNELS 3 Zrotation Xrotation Yrotation
                          JOINT RightHandThumb4
                          {
                            OFFSET 7.00062 0 0
                            CHANNELS 3 Zrotation Xrotation Yrotation
                            End Site
                            {
                              OFFSET 0 0 0
                            }
                          }
                        }
                      }
                    }
                    JOINT RightHandIndex1
                    {
                      OFFSET 24.0991 1.01525 -5.40578
                      CHANNELS 3 Zrotation Xrotation Yrotation
                      JOINT RightHandIndex2
                      {
                        OFFSET 7.26773 7.75144e-005 0.000232543
                        CHANNELS 3 Zrotation Xrotation Yrotation
                        JOINT RightHandIndex3
                        {
                          OFFSET 7.13572 -0.000310058 3.87571e-005
                          CHANNELS 3 Zrotation Xrotation Yrotation
                          JOINT RightHandIndex4
                          {
                            OFFSET 5.46717 0 3.87572e-005
                            CHANNELS 3 Zrotation Xrotation Yrotation
                            End Site
                            {
                              OFFSET 0 0 0
                            }
                          }
                        }
                      }
                    }
                    JOINT RightHandMiddle1
                    {
                      OFFSET 24.4603 2.52899 0.918547
                      CHANNELS 3 Zrotation Xrotation Yrotation
                      JOINT RightHandMiddle2
                      {
                        OFFSET 7.41641 -0.000116272 -0.000116272
                        CHANNELS 3 Zrotation Xrotation Yrotation
                        JOINT RightHandMiddle3
                        {
                          OFFSET 8.76765 -3.87577e-005 0.000232543
                          CHANNELS 3 Zrotation Xrotation Yrotation
                          JOINT RightHandMiddle4
                          {
                            OFFSET 6.07609 -0.000193787 -0.000116271
                            CHANNELS 3 Zrotation Xrotation Yrotation
                            End Site
                            {
                              OFFSET 0 0 0
                            }
                          }
                        }
                      }
                    }
                    JOINT RightHandRing1
                    {
                      OFFSET 22.465 1.97571 6.34696
                      CHANNELS 3 Zrotation Xrotation Yrotation
                      JOINT RightHandRing2
                      {
                        OFFSET 7.36684 0.000193786 0.000155029
                        CHANNELS 3 Zrotation Xrotation Yrotation
                        JOINT RightHandRing3
                        {
                          OFFSET 8.07614 -0.000271301 0
                          CHANNELS 3 Zrotation Xrotation Yrotation
                          JOINT RightHandRing4
                          {
                            OFFSET 6.04468 0.000232543 0
                            CHANNELS 3 Zrotation Xrotation Yrotation
                            End Site
                            {
                              OFFSET 0 0 0
                            }
                          }
                        }
                      }
                    }
                    JOINT RightHandPinky1
                    {
                      OFFSET 19.5277 -0.352346 10.4296
                      CHANNELS 3 Zrotation Xrotation Yrotation
                      JOINT RightHandPinky2
                      {
                        OFFSET 6.16508 0 0.000232543
                        CHANNELS 3 Zrotation Xrotation Yrotation
                        JOINT RightHandPinky3
                        {
                          OFFSET 6.14396 -0.000155048 -0.0048834
                          CHANNELS 3 Zrotation Xrotation Yrotation
                          JOINT RightHandPinky4
                          {
                            OFFSET 4.98577 -7.75146e-005 -7.75143e-005
                            CHANNELS 3 Zrotation Xrotation Yrotation
                            End Site
                            {
                              OFFSET 0 0 0
                            }
                          }
                        }
                      }
                    }
                  }
                }
              }
            }
          }
        }
      }
    }
  }
}
MOTION
Frames:	4
Frame Time:	0.0333333
0 0 0 -90 -7.01671e-015 -180 17.7154 -43.8095 -105.151 -167.013 13.1401 -114.342 0.00558503 0.0413501 -7.69496 2.74122 18.0355 38.9968 -0.558676 0.160307 52.1252 -6.39459e-005 -5.64623e-006 -86.4974 -164.568 -0.00299878 -114.83 2.81519 2.52769 -48.1122 -12.2939 1.47439 41.9005 0.578228 -0.137582 55.3049 0.00046277 -0.000254026 -86.4975 -1.29222e-014 -3.78943e-015 122.688 -17.1065 -1.54822 -11.169 3.49382 1.23635 -14.0675 -0.272761 0.661698 6.89059 -6.876 11.0539 28.0004 9.67707 5.46419 46.9073 90.5029 22.5183 -21.2408 78.9403 38.0619 -6.87012 1.85672e-005 -18.605 28.1976 7.11712 44.3217 -12.6711 -159.251 -3.34767 162.52 0.000373168 -2.33018e-005 10.446 0.00027281 -5.1599e-005 8.46575 -0.00283735 0.00409388 0.00737672 -10.8133 86.8532 18.7825 -0.000402926 -0.000341135 7.92692 0.000955703 -0.000814919 2.97986 -0.000654331 -0.000514969 -3.05259 -7.36957 85.05 28.8175 4.15692e-005 -0.000332884 9.12173 0.000860125 -0.000743119 8.27144 -0.000586344 -0.000313937 -2.97732 -16.009 89.5651 44.5907 6.42743e-005 -0.000914271 12.9131 0.00744933 0.000817999 12.0524 -0.00219879 -0.000666529 -3.04941 8.53279 89.3132 20.1064 0.00101324 -0.00130209 12.9131 -5.79393e-005 -0.000263424 12.0628 -0.00202352 -3.13937e-006 -3.05142 -108.959 -22.1412 -28.0727 -51.1574 -26.1381 16.9161 -2.36056e-005 18.6947 27.9042 -7.18695 -24.8568 -2.0995 156.114 1.23544 165.878 -9.54929e-005 7.21722e-005 10.4461 0.00011208 0.000161184 16.8489 -0.000137329 7.01671e-015 -180 -114.227 -82.1734 -83.1829 -0.000145388 -0.000248455 17.5204 0.00017571 0.000105154 16.6755 0.000656127 -9.15529e-005 -180 -23.7429 -89.9996 14.8387 -4.84967e-005 7.61643e-005 25.4505 -3.24999e-005 0.000260025 21.9671 -3.05175e-005 0.000122071 -180 54.9785 -87.2288 97.2394 3.41227e-005 -9.89254e-005 29.2418 -6.55679e-005 0.000369167 25.7585 0.000686644 -0.000335694 180 54.9954 -84.2095 97.2537 -8.03681e-005 0.000380778 29.2418 -1.8043e-005 0.0001617 25.7585 0.00036621 -0.000335694 180 
0 0 0 -90 -7.01671e-015 -180 16.7628 -43.2574 -106.66 -167.215 12.3676 -117.854 0.000920883 0.0102571 -5.14316 1.08905 18.5536 39.6942 0.216859 -0.473708 51.6459 -6.39739e-005 -3.38448e-005 -86.4974 -163.139 -0.318083 -110.351 2.87231 2.28324 -51.5489 -14.8631 0.00252758 43.5646 0.579567 -0.13183 55.8741 0.000465769 -0.000252565 -86.4975 2.47936e-006 -8.33768e-006 123.122 -16.4536 -0.811439 -10.5106 3.74147 1.72238 -13.9185 -0.718615 1.76625 6.7585 -6.41482 9.80394 28.0371 9.09786 4.6458 46.9931 90.5232 22.6119 -20.74 76.9535 36.9421 -6.9757 2.06007e-005 -19.7134 27.7013 5.55327 41.2768 -10.3574 -158.939 -3.16343 162.809 0.000373115 -2.66318e-005 10.446 0.000271702 -4.61719e-005 9.32626 -0.00284504 0.00415428 0.00725037 6.42469 87.2056 3.16731 -0.000400881 -0.000342442 8.60806 0.000972756 -0.000806119 3.93233 -0.000649354 -0.000511418 -2.78607 -6.16865 85.5339 28.8104 5.20157e-005 -0.000332287 10.2956 0.000875862 -0.000733242 9.22391 -0.000575929 -0.0003154 -2.68591 -34.6021 89.3954 64.1361 8.3031e-005 -0.000913261 14.087 0.00137621 -0.000478063 13.0153 -0.00267196 -0.000653572 -2.78222 -25.0783 89.0509 54.6693 0.00103707 -0.00128783 14.087 0.0112539 0.00235969 13.0067 -0.0026438 1.0237e-005 -2.78452 -109.063 -22.1256 -28.1405 -49.8842 -27.261 19.505 -2.57616e-005 19.5109 28.7955 -6.3921 -24.8397 -1.31941 156.109 1.19752 166.181 -9.61315e-005 6.84146e-005 10.4461 -0.0183566 -0.00537281 16.6821 -0.000137329 -4.57764e-005 180 -114.691 -82.177 -83.7256 -0.000149426 -0.000237845 16.914 0.000178196 0.000103395 16.4128 0.000503539 -1.52588e-005 -180 -23.6265 -89.9996 14.7626 -5.44406e-005 7.18073e-005 24.9779 -2.77454e-005 0.000257274 21.7044 -3.05175e-005 0.000122071 -180 54.9771 -87.2287 96.9749 5.61116e-005 -8.15778e-005 28.7693 -6.42303e-005 0.000359984 25.4958 0.000534057 -0.000152588 180 54.9951 -84.2092 96.9885 -7.11916e-005 0.000370464 28.7693 -0.00446153 -0.00197826 25.5001 0.00036621 -0.000381471 180 
0 0 0 -90 -7.01671e-015 -180 14.5224 -43.3498 -108.955 -167.954 10.7508 -120.551 0.000285397 0.00467656 -3.50317 0.827131 18.652 40.2677 0.376165 -0.611692 51.3485 -6.40763e-005 -9.1693e-005 -86.4974 -162.596 -1.84342 -106.194 2.66267 2.10137 -51.7457 -17.255 -3.33069 44.1626 0.578156 -0.137898 55.274 0.000468922 -0.000249907 -86.4975 1.28502e-014 3.89935e-015 123.761 -14.9547 0.0848998 -10.0001 4.23796 2.09018 -13.8113 -1.06777 2.64084 6.66448 -6.18462 8.91559 28.5471 8.9537 3.77063 46.6368 90.8107 22.7015 -20.4415 75.5807 34.1458 -7.21622 1.38778e-005 -20.9629 27.1633 4.6474 38.8349 -8.504 -158.612 -2.95999 163.114 0.00037332 -3.42885e-005 10.446 0.000271933 -3.92782e-005 10.1868 -0.002854 0.00421577 0.00712399 27.2818 87.3037 -15.9506 -0.000396431 -0.000344693 9.34227 0.000996101 -0.000798543 4.95509 -0.000642704 -0.000508888 -2.51954 -4.88053 86.0386 28.8038 5.46956e-005 -0.000336221 11.5538 0.000895148 -0.000725802 10.2467 -0.000565137 -0.000316759 -2.39449 -44.3118 89.1785 74.8682 0.000104602 -0.00091285 15.3451 0.00140338 -0.000465507 14.0381 -0.00314696 -0.000642577 -2.51503 -40.9313 88.5921 71.5434 0.00106586 -0.0012751 15.3451 0.0105031 0.00238532 14.0596 -0.00326712 2.16325e-005 -2.51763 -108.651 -22.1184 -28.2651 -47.8836 -29.9379 23.0462 -2.60517e-005 20.9101 29.6151 -6.00236 -24.5235 -0.959816 156.103 1.15479 166.537 -9.62707e-005 6.18074e-005 10.4461 -0.00912811 -0.0025926 16.4318 -0.000137329 -0.000137329 180 -115.196 -82.1803 -84.3633 -0.000154469 -0.000228521 16.1841 0.000174596 9.61933e-005 16.0802 0.000503539 -9.15529e-005 -180 -22.5961 -89.9996 15.5367 -4.73989e-005 7.05243e-005 24.3937 -3.16695e-005 0.000249062 21.3718 -3.05175e-005 0.000106812 180 54.9758 -87.2285 96.6404 4.28788e-005 -8.48962e-005 28.185 -6.37327e-005 0.000349177 25.1632 0.000534057 -0.000198365 180 54.9946 -84.209 96.6531 -7.04434e-005 0.000356305 28.185 -1.75708e-005 0.00014997 25.1631 0.00036621 -0.000488283 180 
0 0 0 -90 -7.01671e-015 -180 11.5637 -44.2763 -111.301 -168.957 8.56037 -122.217 0.0002417 0.00469308 -2.95894 0.810408 18.3119 41.3337 0.679454 -0.905038 49.9824 -6.3682e-005 2.42729e-005 -86.4974 -163.243 -3.44872 -102.435 2.25002 1.97032 -48.8118 -17.9476 -5.01489 44.0038 0.575479 -0.148679 54.2031 0.000471063 -0.000250167 -86.4975 1.28149e-014 3.95161e-015 124.275 -13.0921 1.14575 -9.65233 5.05794 2.66684 -13.6201 -1.20514 2.9758 6.70479 -6.12366 8.70627 28.567 9.05758 3.33197 46.7581 91.2785 22.6152 -21.2366 74.5387 31.6337 -7.21904 1.86653e-005 -22.2103 26.441 4.24853 37.3717 -7.89032 -158.286 -2.75483 163.416 0.00037343 -4.8817e-005 10.446 0.000273575 -3.27547e-005 11.0833 -0.00286147 0.00427841 0.00699764 47.8519 87.0927 -34.6892 -0.000393663 -0.000345754 10.1206 0.00627326 -0.000186484 6.04711 -0.000637362 -0.000507099 -2.25302 -3.52223 86.5536 28.7977 6.32461e-005 -0.000338192 12.8793 0.000910732 -0.000717316 11.3263 -0.000555972 -0.000318357 -2.10308 -49.5479 88.9404 81.1833 0.000126473 -0.000913645 16.6706 0.00580939 0.000779342 15.1322 -0.00361952 -0.000631737 -2.24783 -48.3002 88.0624 79.9891 0.00109187 -0.00125783 16.6706 0.00975166 0.00239839 15.1126 -0.00388796 2.92949e-005 -2.25074 -107.781 -22.2228 -27.8331 -46.5699 -31.5945 26.9516 -2.41374e-005 21.285 30.303 -5.35454 -24.0357 -0.326968 156.097 1.1129 166.931 -9.64928e-005 4.80388e-005 10.4461 0.00011307 0.000144996 16.1816 -0.000137329 4.57764e-005 180 -115.701 -82.1828 -85.0691 -0.000159656 -0.000216627 15.353 0.000172711 9.09913e-005 15.6799 0.000350952 -1.52588e-005 -180 -22.571 -89.9996 15.2378 -4.75316e-005 6.53829e-005 23.7083 -3.13789e-005 0.000242034 20.9715 -3.05175e-005 0.000106812 180 54.9745 -87.2285 96.2385 5.14969e-005 -7.50444e-005 27.4996 -6.05297e-005 0.000337446 24.7629 0.000442504 -0.000122071 -180 54.9944 -84.2088 96.2503 -6.74031e-005 0.000341995 27.4996 -1.77351e-005 0.000148621 24.7629 0.000274658 -0.0002594 -180 
